<?xml version="1.0" encoding="UTF-8" standalone="no"?>
<svg width="66px" height="66px" viewBox="0 0 66 66" version="1.1" xmlns="http://www.w3.org/2000/svg" xmlns:xlink="http://www.w3.org/1999/xlink">
    <!-- Generator: Sketch 3.8.3 (29802) - http://www.bohemiancoding.com/sketch -->
    <title>SpeechtoText</title>
    <desc>Created with Sketch.</desc>
    <defs></defs>
    <g id="Page-1" stroke="none" stroke-width="1" fill="none" fill-rule="evenodd">
        <g id="SpeechtoText" transform="translate(0.000000, 1.000000)">
            <g id="Layer_1">
                <path d="M30.9623125,41.4032039 C30.9623125,44.8798093 29.6949785,48.0310182 27.7597253,50.6256276 C26.0984902,52.7835206 20.5753116,60.3447093 16.1567688,64.2751572 L16.1567688,56.5940857 L15.7114893,56.5940857 C7.31112006,56.5940857 0.571985928,49.7950101 0.571985928,41.4032039 C0.571985928,33.0113978 7.42243994,26.2123221 15.7628677,26.2123221 C24.1118585,26.2123221 30.9623125,33.0028347 30.9623125,41.4032039 L30.9623125,41.4032039 Z" id="Shape" fill="#562F72"></path>
                <ellipse id="Oval" fill="#FFFFFF" cx="21.148589" cy="42.4865801" rx="2.05787742" ry="2.05787742"></ellipse>
                <ellipse id="Oval" fill="#FFFFFF" cx="12.9670278" cy="42.4865801" rx="2.05787742" ry="2.05787742"></ellipse>
                <ellipse id="Oval" fill="#FFFFFF" cx="4.84540483" cy="42.4865801" rx="2.05787742" ry="2.05787742"></ellipse>
                <g id="Group" transform="translate(1.865009, 0.129219)" fill="#734098">
                    <polygon id="Shape" points="17.1603873 12.1081775 15.0624358 10.395564 18.7103025 5.91707965 14.2917597 2.21783449 16.0043732 0.0599414726 22.6321874 5.53174161"></polygon>
                    <path d="M0.20551362,26.6910814 C-0.0685045401,24.2591703 0.0941937426,21.7758807 0.650793131,19.4552894 C2.08938847,13.5467728 6.0626518,8.62300899 11.5858303,5.91707965 C13.6324035,4.92376382 15.8930533,4.25584455 18.1622662,3.98182639 L18.5476042,7.29573352 C16.612351,7.51837328 14.7370392,8.0664096 13.0244257,8.89702715 C8.44318457,11.1062986 5.12071437,15.2508232 3.85338038,20.2259655 C3.35672247,22.2125971 3.24540259,24.2591703 3.46804234,26.3057434 L0.20551362,26.6910814 L0.20551362,26.6910814 Z" id="Shape"></path>
                </g>
                <g id="Group" transform="translate(27.639842, 0.300480)">
                    <polygon id="Shape" stroke="#562F72" points="37.0181409 45.2986271 0.0599414726 45.2986271 0.0599414726 0.0513784051 27.4617575 0.0513784051 37.0181409 9.55638334"></polygon>
                    <path d="M6.02839953,12.7075922 L32.1029401,12.7075922 L32.1029401,17.126135 L6.02839953,17.126135 L6.02839953,12.7075922 Z M6.02839953,22.3153539 L24.7558282,22.3153539 L24.7558282,26.7338968 L6.02839953,26.7338968 L6.02839953,22.3153539 Z M6.02839953,31.4350208 L29.2856909,31.4350208 L29.2856909,35.8535637 L6.02839953,35.8535637 L6.02839953,31.4350208 Z" id="Shape" fill="#734098"></path>
                    <polygon id="Shape" fill="#562F72" points="37.0181409 9.66770322 27.4103791 9.66770322 27.4103791 0.0513784051"></polygon>
                </g>
            </g>
        </g>
    </g>
</svg>