<?xml version="1.0" encoding="utf-8"?>
<!-- Generator: Adobe Illustrator 19.1.0, SVG Export Plug-In . SVG Version: 6.00 Build 0)  -->
<svg version="1.1" id="Layer_1" xmlns="http://www.w3.org/2000/svg" xmlns:xlink="http://www.w3.org/1999/xlink" x="0px" y="0px"
	 viewBox="7 -6 104 104" style="enable-background:new 7 -6 104 104;" xml:space="preserve">
<title>view docs</title>
<desc>Created with Sketch.</desc>
<g id="Mobile-Category-Tabs">
	<g id="Getting-Started" transform="translate(-995.000000, -395.000000)">
		<g id="Icons_x2F_catalog_x5F_128" transform="translate(995.000000, 395.000000)">
			<path id="Shape" style="fill:#5AAAFA;" d="M79-6c-8,0-16,4-20,8c-4-4-12-8-20-8H7v96h32c8,0,16,4,20,8c4-4,12-8,20-8h32V-6H79
				L79-6z M59,92.8C54.1,89.2,46.7,86,39,86H11V-2h28c6.8,0,13.8,3.4,17.2,6.8L59,7.7V92.8L59,92.8z M99,62H71v-4h28V62L99,62z
				 M99,50H71v-4h28V50L99,50z M99,38H71v-4h28V38L99,38z M99,26H71v-4h28V26L99,26z"/>
		</g>
	</g>
</g>
</svg>
